<svg xmlns="http://www.w3.org/2000/svg" viewBox="0 0 64 64" width="64" height="64">
  <defs>
    <linearGradient id="mugGrad" x1="0%" y1="0%" x2="100%" y2="100%">
      <stop offset="0%" stop-color="#FF6B35"/>
      <stop offset="100%" stop-color="#ff8c5a"/>
    </linearGradient>
  </defs>

  <rect width="64" height="64" rx="14" fill="#0f0f0f"/>
  <rect x="1" y="1" width="62" height="62" rx="13" fill="none" stroke="#FF6B35" stroke-width="1" opacity="0.4"/>

  <path d="M 14 24 L 14 52 Q 14 56 18 56 L 38 56 Q 44 56 44 52 L 44 24 Z" fill="url(#mugGrad)"/>
  <path d="M 44 30 Q 56 30 56 40 Q 56 50 44 50 L 44 46 Q 52 46 52 40 Q 52 34 44 34 Z" fill="url(#mugGrad)"/>

  <path d="M 21 18 Q 24 12 21 3" fill="none" stroke="#FF6B35" stroke-width="3" stroke-linecap="round" opacity="0.95"/>
  <path d="M 29 16 Q 31 9 29 1" fill="none" stroke="#FF6B35" stroke-width="3" stroke-linecap="round" opacity="0.65"/>
  <path d="M 37 18 Q 40 12 37 3" fill="none" stroke="#FF6B35" stroke-width="3" stroke-linecap="round" opacity="0.95"/>
</svg>
