<?xml version="1.0" encoding="UTF-8"?>
<svg xmlns="http://www.w3.org/2000/svg" viewBox="0 0 800 240" width="800" height="240">
  <defs>
    <style type="text/css">
      @import url('https://fonts.googleapis.com/css2?family=Playfair+Display:ital,wght@1,400;1,700;1,900&amp;family=Heebo:wght@400;500;700&amp;display=swap');
      .brand-en { font-family: 'Playfair Display', Georgia, serif; font-style: italic; font-weight: 700; }
      .brand-he { font-family: 'Heebo', 'Assistant', sans-serif; font-weight: 500; }
      .meta-en { font-family: 'Playfair Display', Georgia, serif; font-style: italic; font-weight: 400; }
    </style>
    <linearGradient id="mugGrad" x1="0%" y1="0%" x2="100%" y2="100%">
      <stop offset="0%" stop-color="#FF6B35"/>
      <stop offset="100%" stop-color="#ff8c5a"/>
    </linearGradient>
  </defs>

  <rect width="800" height="240" rx="22" fill="#0f0f0f"/>
  <rect x="1" y="1" width="798" height="238" rx="21" fill="none" stroke="#FF6B35" stroke-width="1" opacity="0.18"/>

  <g transform="translate(75, 58) scale(1.95)">
    <path d="M 12 22 L 12 50 Q 12 56 18 56 L 38 56 Q 44 56 44 50 L 44 22 Z"
          fill="none" stroke="url(#mugGrad)" stroke-width="2.8" stroke-linejoin="round" stroke-linecap="round"/>
    <path d="M 44 30 Q 57 30 57 39 Q 57 48 44 48"
          fill="none" stroke="url(#mugGrad)" stroke-width="2.8" stroke-linecap="round" stroke-linejoin="round"/>
    <path d="M 19 16 Q 22 10 19 3" fill="none" stroke="#FF6B35" stroke-width="2.2" stroke-linecap="round" opacity="0.9"/>
    <path d="M 28 14 Q 30 7 28 0" fill="none" stroke="#FF6B35" stroke-width="2.2" stroke-linecap="round" opacity="0.55"/>
    <path d="M 36 16 Q 38 10 36 3" fill="none" stroke="#FF6B35" stroke-width="2.2" stroke-linecap="round" opacity="0.9"/>
  </g>

  <line x1="240" y1="72" x2="240" y2="168" stroke="#FF6B35" stroke-width="1" opacity="0.28"/>

  <text x="520" y="118" text-anchor="middle" class="brand-en" font-size="62" fill="#ffffff" text-rendering="geometricPrecision">Sfalim Shop</text>
  <text x="520" y="153" text-anchor="middle" class="brand-he" font-size="28" fill="#ffffff" text-rendering="geometricPrecision">ספלים שופ</text>

  <line x1="430" y1="173" x2="510" y2="173" stroke="#FF6B35" stroke-width="1.2"/>
  <circle cx="520" cy="173" r="2.6" fill="#FF6B35"/>
  <line x1="530" y1="173" x2="610" y2="173" stroke="#FF6B35" stroke-width="1.2"/>

  <text x="520" y="200" text-anchor="middle" class="brand-he" font-size="15" fill="#a8a8a8" letter-spacing="3" text-rendering="geometricPrecision">עיצוב מקורי · נשמה מקומית</text>
</svg>
